<svg width="512" height="512" viewBox="0 0 512 512" fill="none" xmlns="http://www.w3.org/2000/svg">
  <!-- Background gradient -->
  <rect width="512" height="512" rx="128" fill="url(#paint0_linear)" />
  
  <!-- Number 7 -->
  <path d="M256 384C242.745 384 232 373.255 232 360V280C232 266.745 242.745 256 256 256C269.255 256 280 266.745 280 280V360C280 373.255 269.255 384 256 384Z" fill="white"/>
  
  <!-- Calendar outline -->
  <rect x="144" y="128" width="224" height="224" rx="24" stroke="white" stroke-width="24" stroke-linejoin="round"/>
  
  <!-- Calendar top bar -->
  <rect x="144" y="128" width="224" height="48" rx="24" fill="white"/>
  
  <!-- Calendar dots (day markers) -->
  <circle cx="184" cy="224" r="12" fill="white"/>
  <circle cx="232" cy="224" r="12" fill="white"/>
  <circle cx="280" cy="224" r="12" fill="white"/>
  <circle cx="328" cy="224" r="12" fill="white"/>
  
  <circle cx="184" cy="272" r="12" fill="white"/>
  <circle cx="232" cy="272" r="12" fill="white"/>
  <circle cx="280" cy="272" r="12" fill="white"/>
  <circle cx="328" cy="272" r="12" fill="white"/>
  
  <circle cx="184" cy="320" r="12" fill="white"/>
  <circle cx="232" cy="320" r="12" fill="white"/>
  <circle cx="280" cy="320" r="12" fill="white"/>
  <circle cx="328" cy="320" r="12" fill="white"/>
  
  <!-- Gradient definitions -->
  <defs>
    <linearGradient id="paint0_linear" x1="0" y1="0" x2="512" y2="512" gradientUnits="userSpaceOnUse">
      <stop offset="0" stop-color="#6366F1"/>
      <stop offset="0.5" stop-color="#F43F5E"/>
      <stop offset="1" stop-color="#10B981"/>
    </linearGradient>
  </defs>
</svg>